<mxfile host="app.diagrams.net" agent="Mozilla/5.0 (Macintosh; Intel Mac OS X 10_15_7) AppleWebKit/537.36 (KHTML, like Gecko) Chrome/137.0.0.0 Safari/537.36" version="26.2.9">
  <diagram name="第 1 页" id="Myg5ZQfDnUOYBfTnbBtr">
    <mxGraphModel dx="1124" dy="727" grid="0" gridSize="10" guides="1" tooltips="1" connect="1" arrows="1" fold="1" page="1" pageScale="1" pageWidth="827" pageHeight="1169" math="0" shadow="0">
      <root>
        <mxCell id="0" />
        <mxCell id="1" parent="0" />
        <mxCell id="-z25IhhaQOezFnpSGGoz-3" value="" style="edgeStyle=orthogonalEdgeStyle;rounded=0;orthogonalLoop=1;jettySize=auto;html=1;" parent="1" source="-z25IhhaQOezFnpSGGoz-1" target="-z25IhhaQOezFnpSGGoz-2" edge="1">
          <mxGeometry relative="1" as="geometry" />
        </mxCell>
        <mxCell id="-z25IhhaQOezFnpSGGoz-1" value="输入" style="rounded=0;whiteSpace=wrap;html=1;fillColor=#d5e8d4;strokeColor=#82b366;" parent="1" vertex="1">
          <mxGeometry x="50" y="200" width="90" height="40" as="geometry" />
        </mxCell>
        <mxCell id="-z25IhhaQOezFnpSGGoz-8" style="edgeStyle=orthogonalEdgeStyle;rounded=0;orthogonalLoop=1;jettySize=auto;html=1;exitX=0.5;exitY=0;exitDx=0;exitDy=0;entryX=0;entryY=0.5;entryDx=0;entryDy=0;" parent="1" source="-z25IhhaQOezFnpSGGoz-2" target="-z25IhhaQOezFnpSGGoz-6" edge="1">
          <mxGeometry relative="1" as="geometry" />
        </mxCell>
        <mxCell id="LGHEtSpSsy_B_4yM6YEi-4" style="edgeStyle=orthogonalEdgeStyle;rounded=0;orthogonalLoop=1;jettySize=auto;html=1;exitX=0.5;exitY=1;exitDx=0;exitDy=0;entryX=0;entryY=0.5;entryDx=0;entryDy=0;" edge="1" parent="1" source="-z25IhhaQOezFnpSGGoz-2" target="-z25IhhaQOezFnpSGGoz-4">
          <mxGeometry relative="1" as="geometry" />
        </mxCell>
        <mxCell id="LGHEtSpSsy_B_4yM6YEi-7" style="edgeStyle=orthogonalEdgeStyle;rounded=0;orthogonalLoop=1;jettySize=auto;html=1;exitX=1;exitY=0.5;exitDx=0;exitDy=0;entryX=0;entryY=0.5;entryDx=0;entryDy=0;" edge="1" parent="1" source="-z25IhhaQOezFnpSGGoz-2" target="-z25IhhaQOezFnpSGGoz-9">
          <mxGeometry relative="1" as="geometry" />
        </mxCell>
        <mxCell id="-z25IhhaQOezFnpSGGoz-2" value="潜在失效" style="rounded=0;whiteSpace=wrap;html=1;fillColor=#dae8fc;strokeColor=#6c8ebf;" parent="1" vertex="1">
          <mxGeometry x="167" y="200" width="90" height="40" as="geometry" />
        </mxCell>
        <mxCell id="-z25IhhaQOezFnpSGGoz-6" value="FE 失效后果" style="rounded=0;whiteSpace=wrap;html=1;fillColor=#dae8fc;strokeColor=#6c8ebf;" parent="1" vertex="1">
          <mxGeometry x="280" y="140" width="90" height="40" as="geometry" />
        </mxCell>
        <mxCell id="-z25IhhaQOezFnpSGGoz-13" value="" style="endArrow=none;dashed=1;html=1;rounded=0;entryX=0.5;entryY=1;entryDx=0;entryDy=0;exitX=0.5;exitY=0;exitDx=0;exitDy=0;fillColor=#dae8fc;strokeColor=#6c8ebf;" parent="1" source="-z25IhhaQOezFnpSGGoz-9" target="-z25IhhaQOezFnpSGGoz-6" edge="1">
          <mxGeometry width="50" height="50" relative="1" as="geometry">
            <mxPoint x="30" y="440" as="sourcePoint" />
            <mxPoint x="80" y="390" as="targetPoint" />
          </mxGeometry>
        </mxCell>
        <mxCell id="-z25IhhaQOezFnpSGGoz-16" value="失效链" style="text;align=center;verticalAlign=middle;resizable=0;points=[];autosize=1;strokeColor=none;fillColor=none;labelBorderColor=none;fontColor=light-dark(#6c8ebf, #ededed);fontStyle=1" parent="1" vertex="1">
          <mxGeometry x="330" y="330" width="60" height="30" as="geometry" />
        </mxCell>
        <mxCell id="-z25IhhaQOezFnpSGGoz-24" style="edgeStyle=orthogonalEdgeStyle;rounded=0;orthogonalLoop=1;jettySize=auto;html=1;exitX=0;exitY=0.5;exitDx=0;exitDy=0;entryX=1;entryY=0.5;entryDx=0;entryDy=0;" parent="1" source="-z25IhhaQOezFnpSGGoz-18" target="-z25IhhaQOezFnpSGGoz-4" edge="1">
          <mxGeometry relative="1" as="geometry" />
        </mxCell>
        <mxCell id="-z25IhhaQOezFnpSGGoz-25" style="rounded=0;orthogonalLoop=1;jettySize=auto;html=1;exitX=0;exitY=0.5;exitDx=0;exitDy=0;entryX=1;entryY=0.5;entryDx=0;entryDy=0;dashed=1;" parent="1" source="-z25IhhaQOezFnpSGGoz-18" target="-z25IhhaQOezFnpSGGoz-9" edge="1">
          <mxGeometry relative="1" as="geometry" />
        </mxCell>
        <mxCell id="-z25IhhaQOezFnpSGGoz-18" value="D 可探测度" style="rounded=0;whiteSpace=wrap;html=1;fillColor=#fff2cc;strokeColor=#d6b656;" parent="1" vertex="1">
          <mxGeometry x="420" y="260" width="90" height="40" as="geometry" />
        </mxCell>
        <mxCell id="-z25IhhaQOezFnpSGGoz-23" style="edgeStyle=orthogonalEdgeStyle;rounded=0;orthogonalLoop=1;jettySize=auto;html=1;exitX=0;exitY=0.5;exitDx=0;exitDy=0;entryX=1;entryY=0.5;entryDx=0;entryDy=0;" parent="1" source="-z25IhhaQOezFnpSGGoz-19" target="-z25IhhaQOezFnpSGGoz-6" edge="1">
          <mxGeometry relative="1" as="geometry" />
        </mxCell>
        <mxCell id="-z25IhhaQOezFnpSGGoz-19" value="S 重要度" style="rounded=0;whiteSpace=wrap;html=1;fillColor=#fff2cc;strokeColor=#d6b656;" parent="1" vertex="1">
          <mxGeometry x="420" y="140" width="90" height="40" as="geometry" />
        </mxCell>
        <mxCell id="-z25IhhaQOezFnpSGGoz-26" style="edgeStyle=orthogonalEdgeStyle;rounded=0;orthogonalLoop=1;jettySize=auto;html=1;exitX=0;exitY=0.5;exitDx=0;exitDy=0;entryX=1;entryY=0.5;entryDx=0;entryDy=0;" parent="1" source="-z25IhhaQOezFnpSGGoz-20" target="-z25IhhaQOezFnpSGGoz-9" edge="1">
          <mxGeometry relative="1" as="geometry" />
        </mxCell>
        <mxCell id="-z25IhhaQOezFnpSGGoz-20" value="O 发生概率" style="rounded=0;whiteSpace=wrap;html=1;fillColor=#fff2cc;strokeColor=#d6b656;" parent="1" vertex="1">
          <mxGeometry x="420" y="200" width="90" height="40" as="geometry" />
        </mxCell>
        <mxCell id="-z25IhhaQOezFnpSGGoz-27" value="" style="endArrow=none;dashed=1;html=1;rounded=0;entryX=0.5;entryY=1;entryDx=0;entryDy=0;exitX=-0.011;exitY=0.49;exitDx=0;exitDy=0;exitPerimeter=0;" parent="1" edge="1">
          <mxGeometry width="50" height="50" relative="1" as="geometry">
            <mxPoint x="470" y="345" as="sourcePoint" />
            <mxPoint x="460" y="300" as="targetPoint" />
            <Array as="points">
              <mxPoint x="460" y="345" />
            </Array>
          </mxGeometry>
        </mxCell>
        <mxCell id="-z25IhhaQOezFnpSGGoz-28" value="RPN" style="text;html=1;align=center;verticalAlign=middle;resizable=0;points=[];autosize=1;strokeColor=none;fillColor=none;fontColor=light-dark(#918703,#EDEDED);fontStyle=1" parent="1" vertex="1">
          <mxGeometry x="460" y="330" width="50" height="30" as="geometry" />
        </mxCell>
        <mxCell id="-z25IhhaQOezFnpSGGoz-29" value="" style="strokeWidth=2;html=1;shape=mxgraph.flowchart.annotation_2;align=left;labelPosition=right;pointerEvents=1;rotation=-180;" parent="1" vertex="1">
          <mxGeometry x="518" y="150" width="50" height="140" as="geometry" />
        </mxCell>
        <mxCell id="-z25IhhaQOezFnpSGGoz-31" value="风险评估" style="rounded=0;whiteSpace=wrap;html=1;" parent="1" vertex="1">
          <mxGeometry x="568" y="199" width="90" height="40" as="geometry" />
        </mxCell>
        <mxCell id="LGHEtSpSsy_B_4yM6YEi-1" value="" style="endArrow=none;dashed=1;html=1;rounded=0;entryX=0.5;entryY=1;entryDx=0;entryDy=0;exitX=-0.011;exitY=0.49;exitDx=0;exitDy=0;exitPerimeter=0;fillColor=#dae8fc;strokeColor=#6c8ebf;" edge="1" parent="1" source="-z25IhhaQOezFnpSGGoz-16" target="-z25IhhaQOezFnpSGGoz-4">
          <mxGeometry width="50" height="50" relative="1" as="geometry">
            <mxPoint x="329" y="345" as="sourcePoint" />
            <mxPoint x="325" y="300" as="targetPoint" />
            <Array as="points">
              <mxPoint x="325" y="345" />
            </Array>
          </mxGeometry>
        </mxCell>
        <mxCell id="-z25IhhaQOezFnpSGGoz-4" value="FM 失效模式" style="rounded=0;whiteSpace=wrap;html=1;fillColor=#dae8fc;strokeColor=#6c8ebf;" parent="1" vertex="1">
          <mxGeometry x="280" y="260" width="90" height="40" as="geometry" />
        </mxCell>
        <mxCell id="-z25IhhaQOezFnpSGGoz-9" value="FC 失效原因" style="rounded=0;whiteSpace=wrap;html=1;fillColor=#dae8fc;strokeColor=#6c8ebf;" parent="1" vertex="1">
          <mxGeometry x="280" y="200" width="90" height="40" as="geometry" />
        </mxCell>
        <mxCell id="LGHEtSpSsy_B_4yM6YEi-6" value="" style="endArrow=none;dashed=1;html=1;rounded=0;entryX=0.5;entryY=1;entryDx=0;entryDy=0;exitX=0.5;exitY=0;exitDx=0;exitDy=0;fillColor=#dae8fc;strokeColor=#6c8ebf;" edge="1" parent="1" source="-z25IhhaQOezFnpSGGoz-4" target="-z25IhhaQOezFnpSGGoz-9">
          <mxGeometry width="50" height="50" relative="1" as="geometry">
            <mxPoint x="335" y="211" as="sourcePoint" />
            <mxPoint x="335" y="190" as="targetPoint" />
          </mxGeometry>
        </mxCell>
      </root>
    </mxGraphModel>
  </diagram>
</mxfile>
